<mxfile host="app.diagrams.net" modified="2023-11-04T13:33:17.547Z" agent="Mozilla/5.0 (Windows NT 6.3; Win64; x64) AppleWebKit/537.36 (KHTML, like Gecko) Chrome/109.0.0.0 Safari/537.36" etag="gyTB93w5bn72IFLu8PjB" version="22.0.8" type="google">
  <diagram name="Strona-1" id="kbsHEE3qFrxqfZDWtqZ_">
    <mxGraphModel grid="1" page="1" gridSize="10" guides="1" tooltips="1" connect="1" arrows="1" fold="1" pageScale="1" pageWidth="827" pageHeight="1169" math="0" shadow="0">
      <root>
        <mxCell id="0" />
        <mxCell id="1" parent="0" />
        <mxCell id="2aInwshbX2cgWWXK79Cj-1" value="Napisz pseudokod algorytmu obliczający sumę cyfr w podanej przez użytkownika liczbie n. Przykład poniżej:&#xa;n = 1234; wynik = 1 + 2 + 3 + 4" style="text;whiteSpace=wrap;html=1;" vertex="1" parent="1">
          <mxGeometry x="40" y="40" width="560" height="70" as="geometry" />
        </mxCell>
        <mxCell id="2aInwshbX2cgWWXK79Cj-2" value="&lt;div style=&quot;&quot;&gt;&lt;span style=&quot;background-color: initial;&quot;&gt;wprowadź liczbę n&lt;/span&gt;&lt;/div&gt;&lt;div style=&quot;&quot;&gt;&lt;span style=&quot;background-color: initial;&quot;&gt;while n=/= 0&lt;/span&gt;&lt;/div&gt;&lt;div style=&quot;&quot;&gt;&lt;span style=&quot;background-color: initial;&quot;&gt;&lt;span style=&quot;white-space: pre;&quot;&gt;&#x9;&lt;/span&gt;wynik += n mod 10&lt;br&gt;&lt;/span&gt;&lt;/div&gt;&lt;div style=&quot;&quot;&gt;&lt;span style=&quot;white-space: pre;&quot;&gt;&#x9;&lt;/span&gt;n&amp;nbsp;= m/10&lt;/div&gt;&lt;div style=&quot;&quot;&gt;wyświetl wynik&lt;/div&gt;" style="text;html=1;align=left;verticalAlign=middle;resizable=0;points=[];autosize=1;strokeColor=none;fillColor=none;" vertex="1" parent="1">
          <mxGeometry x="100" y="140" width="150" height="90" as="geometry" />
        </mxCell>
      </root>
    </mxGraphModel>
  </diagram>
</mxfile>
